<svg width="414" height="504" viewBox="0 0 414 504" fill="none" xmlns="http://www.w3.org/2000/svg">
<g clip-path="url(#clip0_62_117)">
<path d="M0 -1V381.053C0 381.053 32.2351 449.788 115.112 441.811C197.989 433.835 215.177 390.876 315.243 470.049C315.243 470.049 350.543 503.185 415 501.967V-1H0Z" fill="#FAF8F5"/>
<path d="M402.149 504C349.355 504 318.072 479.662 317.738 479.381C255.185 430.238 216.838 439.61 163.778 452.6C149.705 456.045 135.138 459.609 118.529 462.6C37.3493 477.232 -2.59944 434.67 -3 434.23L-2.01196 433.335C-1.62476 433.762 37.8967 475.777 118.275 461.291C134.858 458.301 149.385 454.75 163.444 451.305C216.878 438.235 255.478 428.796 318.553 478.34C318.94 478.647 356.899 508.152 419.853 501.757L419.987 503.079C413.805 503.72 407.85 504 402.149 504Z" fill="#F9F0E3"/>
</g>
<path d="M98.3638 238.645C95.6367 238.645 93.3582 237.729 91.5267 235.897C90.7518 235.084 90.0797 234.167 89.512 233.149C89.2258 234.044 88.737 234.859 88.0456 235.593C86.4987 237.219 84.2426 238.031 81.2741 238.031H80.6601V196.83L77.0001 195.918V195H84.934C88.597 195 90.4299 196.833 90.4299 200.496V208.734C91.0767 208.206 91.707 207.798 92.3195 207.512C93.7859 206.698 95.4937 206.29 97.4459 206.29C101.554 206.29 104.819 207.685 107.24 210.474C109.663 213.261 110.876 217.258 110.876 222.468C110.876 225.925 110.324 228.867 109.225 231.29C108.128 233.71 106.643 235.543 104.772 236.786C102.9 238.025 100.763 238.645 98.3638 238.645ZM95.9199 236.505C97.2223 236.505 98.3117 235.479 99.1864 233.424C100.06 231.37 100.498 227.718 100.498 222.468C100.498 216.976 100.018 213.213 99.0613 211.178C98.1075 209.144 96.7559 208.126 95.0079 208.126C93.9468 208.126 92.8679 208.531 91.7711 209.342C91.4448 209.589 90.9977 209.996 90.4299 210.564V231.623C90.795 232.562 91.2421 233.376 91.7711 234.067C92.9901 235.693 94.373 236.505 95.9199 236.505ZM127.66 238.645C124.039 238.645 121.252 237.872 119.297 236.327C117.345 234.777 116.37 232.802 116.37 230.402C116.37 228.816 116.716 227.251 117.407 225.704C117.693 224.97 118.058 224.298 118.504 223.69C120.173 223.281 121.985 222.913 123.94 222.587C128.335 221.857 132.221 221.41 135.6 221.246V219.416C135.6 214.897 135.048 211.784 133.949 210.075C132.852 208.367 131.162 207.512 128.882 207.512C128.027 207.512 127.296 207.613 126.688 207.816L125.83 208.126V217.282L125.037 217.461C124.384 217.544 123.836 217.586 123.392 217.586C122.005 217.586 120.894 217.168 120.06 216.334C119.228 215.499 118.814 214.391 118.814 213.008C118.814 211.136 119.759 209.549 121.651 208.245C123.542 206.943 126.36 206.29 130.104 206.29C133.278 206.29 136.014 206.85 138.312 207.971C140.613 209.091 142.362 210.64 143.564 212.614C144.763 214.586 145.364 216.852 145.364 219.416V235.897L149.024 236.809V237.727H143.534C141.09 237.727 139.196 236.975 137.853 235.468C137.284 234.86 136.837 234.088 136.512 233.149C135.943 234.167 135.272 235.084 134.497 235.897C132.664 237.729 130.386 238.645 127.66 238.645ZM130.104 236.505C131.609 236.505 132.973 235.693 134.193 234.067C134.642 233.456 135.111 232.641 135.6 231.623V222.772C133.728 222.772 131.935 222.873 130.223 223.076C128.962 223.24 128.108 223.342 127.66 223.386C127.457 223.831 127.255 224.441 127.052 225.216C126.647 226.762 126.444 228.288 126.444 229.794C126.444 232.071 126.79 233.76 127.481 234.86C128.173 235.957 129.046 236.505 130.104 236.505ZM172.831 238.645C170.104 238.645 167.826 237.729 165.994 235.897C165.219 235.084 164.547 234.167 163.979 233.149C163.693 234.044 163.205 234.859 162.513 235.593C160.966 237.219 158.71 238.031 155.742 238.031H155.128V196.83L151.468 195.918V195H159.401C163.064 195 164.897 196.833 164.897 200.496V208.734C165.544 208.206 166.175 207.798 166.787 207.512C168.253 206.698 169.961 206.29 171.913 206.29C176.022 206.29 179.287 207.685 181.707 210.474C184.13 213.261 185.343 217.258 185.343 222.468C185.343 225.925 184.792 228.867 183.692 231.29C182.595 233.71 181.111 235.543 179.239 236.786C177.368 238.025 175.231 238.645 172.831 238.645ZM170.387 236.505C171.69 236.505 172.779 235.479 173.654 233.424C174.527 231.37 174.965 227.718 174.965 222.468C174.965 216.976 174.485 213.213 173.529 211.178C172.575 209.144 171.223 208.126 169.475 208.126C168.414 208.126 167.335 208.531 166.239 209.342C165.912 209.589 165.465 209.996 164.897 210.564V231.623C165.263 232.562 165.71 233.376 166.239 234.067C167.458 235.693 168.841 236.505 170.387 236.505ZM202.127 238.645C198.506 238.645 195.719 237.872 193.764 236.327C191.812 234.777 190.838 232.802 190.838 230.402C190.838 228.816 191.183 227.251 191.875 225.704C192.161 224.97 192.526 224.298 192.972 223.69C194.641 223.281 196.453 222.913 198.408 222.587C202.802 221.857 206.689 221.41 210.067 221.246V219.416C210.067 214.897 209.516 211.784 208.416 210.075C207.319 208.367 205.629 207.512 203.349 207.512C202.494 207.512 201.764 207.613 201.156 207.816L200.297 208.126V217.282L199.505 217.461C198.852 217.544 198.304 217.586 197.859 217.586C196.472 217.586 195.362 217.168 194.527 216.334C193.696 215.499 193.282 214.391 193.282 213.008C193.282 211.136 194.226 209.549 196.119 208.245C198.01 206.943 200.828 206.29 204.571 206.29C207.746 206.29 210.482 206.85 212.779 207.971C215.08 209.091 216.83 210.64 218.031 212.614C219.231 214.586 219.831 216.852 219.831 219.416V235.897L223.491 236.809V237.727H218.001C215.557 237.727 213.663 236.975 212.32 235.468C211.751 234.86 211.304 234.088 210.979 233.149C210.41 234.167 209.739 235.084 208.965 235.897C207.132 237.729 204.853 238.645 202.127 238.645ZM204.571 236.505C206.076 236.505 207.44 235.693 208.661 234.067C209.109 233.456 209.578 232.641 210.067 231.623V222.772C208.196 222.772 206.403 222.873 204.691 223.076C203.43 223.24 202.576 223.342 202.127 223.386C201.925 223.831 201.722 224.441 201.519 225.216C201.114 226.762 200.911 228.288 200.911 229.794C200.911 232.071 201.257 233.76 201.949 234.86C202.64 235.957 203.513 236.505 204.571 236.505ZM241.5 250.853C237.879 250.853 234.929 250.527 232.648 249.876C230.371 249.223 228.734 248.388 227.737 247.372C226.738 246.354 226.241 245.275 226.241 244.135C226.241 242.752 226.658 241.644 227.492 240.809C228.327 239.975 229.436 239.557 230.819 239.557C231.143 239.557 231.733 239.618 232.589 239.742L233.262 239.861V248.409C233.747 248.572 234.52 248.774 235.581 249.017C237.453 249.426 239.223 249.631 240.892 249.631C245.855 249.631 249.485 248.928 251.783 247.521C254.084 246.117 255.234 244.38 255.234 242.305C255.234 239.659 252.792 238.335 247.908 238.335H236.314C233.262 238.335 230.921 237.707 229.293 236.446C227.662 235.187 226.849 233.579 226.849 231.623C226.849 229.668 227.805 227.94 229.722 226.438C230.492 225.865 231.468 225.357 232.648 224.912C231.142 223.974 230.053 222.866 229.382 221.585C228.71 220.302 228.375 218.764 228.375 216.972C228.375 213.964 229.513 211.534 231.79 209.682C234.07 207.831 237.408 206.904 241.804 206.904C243.715 206.904 245.473 207.098 247.08 207.482C248.689 207.868 249.983 208.387 250.96 209.038C251.285 208.346 251.713 207.737 252.242 207.208C253.461 205.989 254.967 205.378 256.76 205.378C258.143 205.378 259.301 205.858 260.235 206.814C261.173 207.768 261.642 209.018 261.642 210.564C261.642 211.744 261.326 212.702 260.694 213.437C260.065 214.169 259.264 214.534 258.286 214.534C257.836 214.534 257.328 214.492 256.76 214.409L256.152 214.23V206.904C255.091 206.904 254.093 207.413 253.16 208.43C252.793 208.796 252.468 209.305 252.182 209.956C254.216 211.744 255.234 214.084 255.234 216.972C255.234 219.985 254.093 222.417 251.813 224.268C249.536 226.12 246.199 227.046 241.804 227.046C238.875 227.046 236.231 226.537 233.87 225.52L232.648 226.128C232.243 226.375 231.936 226.609 231.731 226.831C231.528 227.054 231.427 227.329 231.427 227.654C231.427 228.345 231.781 228.876 232.493 229.245C233.209 229.612 234.481 229.794 236.314 229.794H247.908C250.96 229.794 253.351 230.68 255.079 232.452C256.811 234.221 257.678 236.69 257.678 239.861C257.678 243.119 256.325 245.766 253.619 247.801C250.913 249.835 246.873 250.853 241.5 250.853ZM241.804 225.824C243.147 225.824 244.195 225.174 244.946 223.874C245.7 222.572 246.078 220.271 246.078 216.972C246.078 213.678 245.7 211.38 244.946 210.081C244.195 208.779 243.147 208.126 241.804 208.126C240.46 208.126 239.411 208.779 238.657 210.081C237.906 211.38 237.53 213.678 237.53 216.972C237.53 220.271 237.906 222.572 238.657 223.874C239.411 225.174 240.46 225.824 241.804 225.824ZM264.086 236.809L267.746 235.897V196.83L264.086 195.918V195H272.02C275.68 195 277.51 196.833 277.51 200.496V210.26C278.121 209.446 278.753 208.793 279.405 208.305C281.153 206.962 283.168 206.29 285.45 206.29C287.727 206.29 289.768 206.77 291.577 207.726C293.39 208.685 294.804 209.936 295.822 211.482C296.838 213.029 297.348 214.656 297.348 216.364V235.897L301.014 236.809V237.727H293.08C289.415 237.727 287.584 235.896 287.584 232.231V216.364C287.584 213.801 287.125 211.838 286.207 210.474C285.292 209.112 284.225 208.43 283.006 208.43C281.459 208.43 280.076 209.243 278.857 210.868C278.328 211.559 277.879 212.374 277.51 213.312V235.897L281.176 236.809V237.727H264.086V236.809ZM316.576 238.645C312.955 238.645 310.168 237.872 308.213 236.327C306.261 234.777 305.286 232.802 305.286 230.402C305.286 228.816 305.632 227.251 306.323 225.704C306.609 224.97 306.974 224.298 307.42 223.69C309.089 223.281 310.901 222.913 312.856 222.587C317.251 221.857 321.137 221.41 324.516 221.246V219.416C324.516 214.897 323.964 211.784 322.865 210.075C321.768 208.367 320.078 207.512 317.798 207.512C316.942 207.512 316.212 207.613 315.604 207.816L314.746 208.126V217.282L313.953 217.461C313.3 217.544 312.752 217.586 312.308 217.586C310.92 217.586 309.81 217.168 308.976 216.334C308.144 215.499 307.73 214.391 307.73 213.008C307.73 211.136 308.675 209.549 310.567 208.245C312.458 206.943 315.276 206.29 319.02 206.29C322.194 206.29 324.93 206.85 327.228 207.971C329.529 209.091 331.278 210.64 332.479 212.614C333.679 214.586 334.28 216.852 334.28 219.416V235.897L337.94 236.809V237.727H332.45C330.006 237.727 328.112 236.975 326.769 235.468C326.2 234.86 325.753 234.088 325.428 233.149C324.858 234.167 324.188 235.084 323.413 235.897C321.58 237.729 319.301 238.645 316.576 238.645ZM319.02 236.505C320.525 236.505 321.888 235.693 323.109 234.067C323.557 233.456 324.027 232.641 324.516 231.623V222.772C322.644 222.772 320.851 222.873 319.139 223.076C317.878 223.24 317.024 223.342 316.576 223.386C316.373 223.831 316.171 224.441 315.968 225.216C315.562 226.762 315.36 228.288 315.36 229.794C315.36 232.071 315.706 233.76 316.397 234.86C317.088 235.957 317.962 236.505 319.02 236.505Z" fill="#3F414E"/>
<defs>
<clipPath id="clip0_62_117">
<rect width="423" height="504" fill="white" transform="translate(-3)"/>
</clipPath>
</defs>
</svg>
