<svg width="261" height="56" viewBox="0 0 261 56" fill="none" xmlns="http://www.w3.org/2000/svg">
<path d="M21.3638 43.6454C18.6367 43.6454 16.3582 42.7289 14.5267 40.8974C13.7518 40.0838 13.0797 39.1673 12.512 38.1495C12.2258 39.0436 11.737 39.8587 11.0456 40.5934C9.49874 42.2192 7.24256 43.0314 4.27406 43.0314H3.66009V1.82998L0.00012207 0.917972V0H7.93402C11.597 0 13.4299 1.83296 13.4299 5.49591V13.7338C14.0767 13.2063 14.707 12.798 15.3195 12.5118C16.7859 11.6982 18.4937 11.2899 20.4459 11.2899C24.5544 11.2899 27.8194 12.6847 30.2395 15.4744C32.6626 18.2611 33.8757 22.2578 33.8757 27.4676C33.8757 30.9249 33.3243 33.8666 32.2245 36.2897C31.1277 38.7098 29.6435 40.5428 27.7717 41.7856C25.9 43.0254 23.7631 43.6454 21.3638 43.6454ZM18.9199 41.5054C20.2223 41.5054 21.3117 40.4787 22.1864 38.4237C23.0597 36.3702 23.4978 32.7176 23.4978 27.4676C23.4978 21.9762 23.018 18.2134 22.0613 16.1778C21.1075 14.1436 19.7559 13.1258 18.0079 13.1258C16.9468 13.1258 15.8679 13.5311 14.7711 14.3418C14.4448 14.5892 13.9977 14.996 13.4299 15.5638V36.6235C13.795 37.5623 14.2421 38.376 14.7711 39.0674C15.9901 40.6933 17.373 41.5054 18.9199 41.5054ZM50.6599 43.6454C47.0387 43.6454 44.252 42.872 42.2969 41.3266C40.3447 39.7768 39.3701 37.8022 39.3701 35.4015C39.3701 33.8159 39.7158 32.2512 40.4073 30.7044C40.6934 29.9697 41.0585 29.2976 41.5041 28.6896C43.1731 28.2813 44.9852 27.9132 46.9404 27.5868C51.335 26.8566 55.2215 26.4096 58.5998 26.2456V24.4157C58.5998 19.8973 58.0484 16.7843 56.9486 15.075C55.8519 13.3672 54.1619 12.5118 51.8819 12.5118C51.0265 12.5118 50.2963 12.6132 49.6883 12.8158L48.83 13.1258V22.2817L48.0372 22.4605C47.3845 22.544 46.8361 22.5857 46.392 22.5857C45.0046 22.5857 43.8944 22.1684 43.0599 21.3339C42.2283 20.4994 41.814 19.3907 41.814 18.0077C41.814 16.136 42.7588 14.549 44.6514 13.245C46.5425 11.9426 49.3605 11.2899 53.1039 11.2899C56.278 11.2899 59.0141 11.8502 61.312 12.9708C63.6129 14.0915 65.3624 15.6398 66.5635 17.6143C67.7631 19.5859 68.3637 21.8525 68.3637 24.4157V40.8974L72.0237 41.8094V42.7274H66.5337C64.0897 42.7274 62.1957 41.9748 60.853 40.4682C60.2837 39.8602 59.8367 39.0883 59.5118 38.1495C58.9426 39.1673 58.272 40.0838 57.497 40.8974C55.6641 42.7289 53.3855 43.6454 50.6599 43.6454ZM53.1039 41.5054C54.609 41.5054 55.9726 40.6933 57.193 39.0674C57.6416 38.4565 58.111 37.6413 58.5998 36.6235V27.7716C56.7281 27.7716 54.9354 27.873 53.2231 28.0756C51.9624 28.2395 51.1085 28.3424 50.6599 28.3856C50.4573 28.8312 50.2546 29.4407 50.0519 30.2156C49.6466 31.7624 49.4439 33.2884 49.4439 34.7935C49.4439 37.0706 49.7897 38.7605 50.4811 39.8602C51.1726 40.957 52.0458 41.5054 53.1039 41.5054ZM95.8313 43.6454C93.1042 43.6454 90.8257 42.7289 88.9942 40.8974C88.2193 40.0838 87.5472 39.1673 86.9794 38.1495C86.6933 39.0436 86.2045 39.8587 85.5131 40.5934C83.9662 42.2192 81.71 43.0314 78.7415 43.0314H78.1276V1.82998L74.4676 0.917972V0H82.4015C86.0644 0 87.8974 1.83296 87.8974 5.49591V13.7338C88.5442 13.2063 89.1745 12.798 89.787 12.5118C91.2534 11.6982 92.9612 11.2899 94.9133 11.2899C99.0219 11.2899 102.287 12.6847 104.707 15.4744C107.13 18.2611 108.343 22.2578 108.343 27.4676C108.343 30.9249 107.792 33.8666 106.692 36.2897C105.595 38.7098 104.111 40.5428 102.239 41.7856C100.368 43.0254 98.2305 43.6454 95.8313 43.6454ZM93.3874 41.5054C94.6898 41.5054 95.7791 40.4787 96.6539 38.4237C97.5272 36.3702 97.9653 32.7176 97.9653 27.4676C97.9653 21.9762 97.4854 18.2134 96.5287 16.1778C95.575 14.1436 94.2234 13.1258 92.4753 13.1258C91.4143 13.1258 90.3354 13.5311 89.2386 14.3418C88.9122 14.5892 88.4652 14.996 87.8974 15.5638V36.6235C88.2625 37.5623 88.7096 38.376 89.2386 39.0674C90.4576 40.6933 91.8405 41.5054 93.3874 41.5054ZM125.127 43.6454C121.506 43.6454 118.719 42.872 116.764 41.3266C114.812 39.7768 113.838 37.8022 113.838 35.4015C113.838 33.8159 114.183 32.2512 114.875 30.7044C115.161 29.9697 115.526 29.2976 115.972 28.6896C117.641 28.2813 119.453 27.9132 121.408 27.5868C125.802 26.8566 129.689 26.4096 133.067 26.2456V24.4157C133.067 19.8973 132.516 16.7843 131.416 15.075C130.319 13.3672 128.629 12.5118 126.349 12.5118C125.494 12.5118 124.764 12.6132 124.156 12.8158L123.297 13.1258V22.2817L122.505 22.4605C121.852 22.544 121.304 22.5857 120.859 22.5857C119.472 22.5857 118.362 22.1684 117.527 21.3339C116.696 20.4994 116.282 19.3907 116.282 18.0077C116.282 16.136 117.226 14.549 119.119 13.245C121.01 11.9426 123.828 11.2899 127.571 11.2899C130.746 11.2899 133.482 11.8502 135.779 12.9708C138.08 14.0915 139.83 15.6398 141.031 17.6143C142.231 19.5859 142.831 21.8525 142.831 24.4157V40.8974L146.491 41.8094V42.7274H141.001C138.557 42.7274 136.663 41.9748 135.32 40.4682C134.751 39.8602 134.304 39.0883 133.979 38.1495C133.41 39.1673 132.739 40.0838 131.965 40.8974C130.132 42.7289 127.853 43.6454 125.127 43.6454ZM127.571 41.5054C129.076 41.5054 130.44 40.6933 131.661 39.0674C132.109 38.4565 132.578 37.6413 133.067 36.6235V27.7716C131.196 27.7716 129.403 27.873 127.691 28.0756C126.43 28.2395 125.576 28.3424 125.127 28.3856C124.925 28.8312 124.722 29.4407 124.519 30.2156C124.114 31.7624 123.911 33.2884 123.911 34.7935C123.911 37.0706 124.257 38.7605 124.949 39.8602C125.64 40.957 126.513 41.5054 127.571 41.5054ZM164.5 55.8532C160.879 55.8532 157.929 55.5269 155.648 54.8756C153.371 54.2229 151.734 53.3884 150.737 52.3721C149.738 51.3543 149.241 50.2753 149.241 49.1353C149.241 47.7524 149.658 46.6437 150.492 45.8092C151.327 44.9746 152.436 44.5574 153.819 44.5574C154.143 44.5574 154.733 44.6185 155.589 44.7422L156.262 44.8614V53.4093C156.747 53.5717 157.52 53.7744 158.581 54.0173C160.453 54.4256 162.223 54.6312 163.892 54.6312C168.855 54.6312 172.485 53.9279 174.783 52.5211C177.084 51.1173 178.234 49.3797 178.234 47.3053C178.234 44.6587 175.792 43.3354 170.908 43.3354H159.314C156.262 43.3354 153.921 42.7065 152.293 41.4458C150.662 40.1866 149.849 38.5787 149.849 36.6235C149.849 34.6683 150.805 32.9397 152.722 31.4375C153.492 30.8653 154.468 30.3571 155.648 29.9116C154.142 28.9742 153.053 27.8655 152.382 26.5854C151.71 25.3023 151.375 23.7644 151.375 21.9717C151.375 18.9645 152.513 16.5339 154.79 14.6816C157.07 12.8307 160.408 11.9038 164.804 11.9038C166.715 11.9038 168.473 12.0976 170.08 12.482C171.689 12.868 172.983 13.3866 173.96 14.0378C174.285 13.3464 174.713 12.7369 175.242 12.2078C176.461 10.9888 177.967 10.3778 179.76 10.3778C181.143 10.3778 182.301 10.8577 183.235 11.8144C184.173 12.7682 184.642 14.0184 184.642 15.5638C184.642 16.744 184.326 17.7022 183.694 18.4369C183.065 19.1686 182.264 19.5337 181.286 19.5337C180.836 19.5337 180.328 19.492 179.76 19.4085L179.152 19.2297V11.9038C178.091 11.9038 177.093 12.4135 176.16 13.4298C175.793 13.7964 175.468 14.3046 175.182 14.9558C177.216 16.744 178.234 19.0837 178.234 21.9717C178.234 24.9849 177.093 27.417 174.813 29.2678C172.536 31.1201 169.199 32.0456 164.804 32.0456C161.875 32.0456 159.231 31.5374 156.87 30.5196L155.648 31.1276C155.243 31.375 154.936 31.6089 154.731 31.831C154.528 32.0545 154.427 32.3287 154.427 32.6536C154.427 33.345 154.781 33.8755 155.493 34.2451C156.209 34.6117 157.481 34.7935 159.314 34.7935H170.908C173.96 34.7935 176.351 35.6802 178.079 37.452C179.811 39.2209 180.678 41.6902 180.678 44.8614C180.678 48.119 179.325 50.7656 176.619 52.8013C173.913 54.8354 169.873 55.8532 164.5 55.8532ZM164.804 30.8236C166.147 30.8236 167.195 30.1738 167.946 28.8744C168.7 27.5719 169.078 25.271 169.078 21.9717C169.078 18.6783 168.7 16.3804 167.946 15.081C167.195 13.7785 166.147 13.1258 164.804 13.1258C163.46 13.1258 162.411 13.7785 161.657 15.081C160.906 16.3804 160.53 18.6783 160.53 21.9717C160.53 25.271 160.906 27.5719 161.657 28.8744C162.411 30.1738 163.46 30.8236 164.804 30.8236ZM187.086 41.8094L190.746 40.8974V1.82998L187.086 0.917972V0H195.02C198.68 0 200.51 1.83296 200.51 5.49591V15.2598C201.121 14.4461 201.753 13.7934 202.405 13.3046C204.153 11.9619 206.168 11.2899 208.45 11.2899C210.727 11.2899 212.768 11.7697 214.577 12.7264C216.39 13.6846 217.804 14.9364 218.822 16.4818C219.838 18.0286 220.348 19.6559 220.348 21.3637V40.8974L224.014 41.8094V42.7274H216.08C212.415 42.7274 210.584 40.8959 210.584 37.2315V21.3637C210.584 18.8005 210.125 16.8379 209.207 15.4744C208.292 14.1123 207.225 13.4298 206.006 13.4298C204.459 13.4298 203.076 14.2435 201.857 15.8678C201.328 16.5593 200.879 17.3744 200.51 18.3117V40.8974L204.176 41.8094V42.7274H187.086V41.8094ZM239.576 43.6454C235.955 43.6454 233.168 42.872 231.213 41.3266C229.261 39.7768 228.286 37.8022 228.286 35.4015C228.286 33.8159 228.632 32.2512 229.323 30.7044C229.609 29.9697 229.974 29.2976 230.42 28.6896C232.089 28.2813 233.901 27.9132 235.856 27.5868C240.251 26.8566 244.137 26.4096 247.516 26.2456V24.4157C247.516 19.8973 246.964 16.7843 245.865 15.075C244.768 13.3672 243.078 12.5118 240.798 12.5118C239.942 12.5118 239.212 12.6132 238.604 12.8158L237.746 13.1258V22.2817L236.953 22.4605C236.3 22.544 235.752 22.5857 235.308 22.5857C233.92 22.5857 232.81 22.1684 231.976 21.3339C231.144 20.4994 230.73 19.3907 230.73 18.0077C230.73 16.136 231.675 14.549 233.567 13.245C235.458 11.9426 238.276 11.2899 242.02 11.2899C245.194 11.2899 247.93 11.8502 250.228 12.9708C252.529 14.0915 254.278 15.6398 255.479 17.6143C256.679 19.5859 257.28 21.8525 257.28 24.4157V40.8974L260.94 41.8094V42.7274H255.45C253.006 42.7274 251.112 41.9748 249.769 40.4682C249.2 39.8602 248.753 39.0883 248.428 38.1495C247.858 39.1673 247.188 40.0838 246.413 40.8974C244.58 42.7289 242.301 43.6454 239.576 43.6454ZM242.02 41.5054C243.525 41.5054 244.888 40.6933 246.109 39.0674C246.557 38.4565 247.027 37.6413 247.516 36.6235V27.7716C245.644 27.7716 243.851 27.873 242.139 28.0756C240.878 28.2395 240.024 28.3424 239.576 28.3856C239.373 28.8312 239.171 29.4407 238.968 30.2156C238.562 31.7624 238.36 33.2884 238.36 34.7935C238.36 37.0706 238.706 38.7605 239.397 39.8602C240.088 40.957 240.962 41.5054 242.02 41.5054Z" fill="#3F414E"/>
</svg>
